@startuml

interface API {
    + buscar(query:String): <<JSON>>
    + comprar(id:long): bool
    + estaLogueado(): bool
}

interface LoginAPI {
    + getLoginUI(): <<html>>
    + login(user:String, pass:String): String
    + logout(token:String): bool
}

interface StockAPI {
    + getStock(id: long): int
    + hayStock(id: long, cantidad:int): bool
    + actualizarStock(id: long, cantidad: int): bool
}

interface RepoArticulos {
    + buscar(query:String): Collection<Articulo>
    + getArticulo(id: long): Articulo
}

class Articulo {
    - id: long
    - descripcion: String
    - stock: int
}

class Usuario {
}

interface FacturacionAPI {
    + facturar(articulo:Articulo, cantidad:int, user:Usuario): bool
}

interface BancoAPI {
    + validarTransaccion(...): bool
}

API "conoce" ..> LoginAPI
API "conoce" ..> StockAPI
API "conoce" ..> RepoArticulos
API "conoce" ..> FacturacionAPI
RepoArticulos "contiene" ..> "0..n    " Articulo
FacturacionAPI "conoce" ..> BancoAPI
FacturacionAPI "utiliza" ..> Articulo
FacturacionAPI "utiliza" ..> Usuario
API "utiliza" ..> Articulo
API "utiliza" ..> Usuario


@enduml